<?xml version="1.0" encoding="UTF-8" standalone="no"?>
<!DOCTYPE svg PUBLIC "-//W3C//DTD SVG 1.1//EN" "http://www.w3.org/Graphics/SVG/1.1/DTD/svg11.dtd">
<svg width="100%" height="100%" viewBox="0 0 807 599" version="1.1" xmlns="http://www.w3.org/2000/svg" xmlns:xlink="http://www.w3.org/1999/xlink" xml:space="preserve" xmlns:serif="http://www.serif.com/" style="fill-rule:evenodd;clip-rule:evenodd;stroke-miterlimit:10;">
    <g>
        <path d="M801.3,418.6C798.4,403.1 783.6,316.1 769.3,274C759.9,246.3 756.2,221 752.3,209.1C740.3,173.4 719.3,143.4 719.3,143.4C719.3,143.4 709.8,130.3 709.2,127.1C708.6,123.9 704.5,118.5 704.5,118.5C704.5,118.5 687.1,112.8 642.2,112.8C597.3,112.8 588.5,117.8 588.5,117.8C586.82,119.723 584.825,121.346 582.6,122.6C579.1,124.4 570.9,124.3 570.9,124.3L537.5,124.3C537.169,124.242 536.83,124.355 536.6,124.6C536.269,125.22 536.065,125.9 536,126.6L269.9,126.6C269.799,125.908 269.597,125.234 269.3,124.6C269.064,124.364 268.73,124.253 268.4,124.3L235,124.3C235,124.3 226.8,124.5 223.3,122.6C221.051,121.382 219.05,119.754 217.4,117.8C215.75,115.846 208.6,112.8 163.7,112.8C118.8,112.8 101.4,118.5 101.4,118.5C101.4,118.5 97.3,123.8 96.7,127.1C96.1,130.4 86.6,143.4 86.6,143.4C86.6,143.4 65.6,173.4 53.6,209.1C49.6,221 45.9,246.3 36.6,274C22.3,316.1 7.5,403.1 4.6,418.6C0.3,441.8 0,508.8 0,508.8C0,508.8 4.5,562.2 36.2,583.7C67.9,605.2 92.9,597.7 92.9,597.7C92.9,597.7 126,589.5 150.7,555.8C175.4,522.1 207.3,426.6 207.3,426.6C208.905,424.541 210.83,422.752 213,421.3C214.886,419.985 217.036,419.098 219.3,418.7L403,418.8L586.7,418.7C588.964,419.098 591.114,419.985 593,421.3C595.17,422.752 597.095,424.541 598.7,426.6C600.305,428.659 630.6,522 655.3,555.8C680,589.6 713.1,597.7 713.1,597.7C713.1,597.7 738.1,605.2 769.8,583.7C801.5,562.2 806,508.8 806,508.8C806,508.8 805.7,441.8 801.3,418.6Z" style="fill:rgb(81,0,178);fill-rule:nonzero;"/>
        <path d="M36.6,276C46,248.3 49.7,223 53.6,211.1C65.6,175.4 86.6,145.4 86.6,145.4C86.6,145.4 96.1,132.3 96.7,129.1C97.3,125.9 101.4,120.5 101.4,120.5C101.4,120.5 118.8,114.8 163.7,114.8C208.6,114.8 217.4,119.8 217.4,119.8C219.08,121.723 221.075,123.346 223.3,124.6C226.8,126.4 235,126.3 235,126.3L268.4,126.3C268.731,126.242 269.07,126.355 269.3,126.6C269.631,127.22 269.835,127.9 269.9,128.6L536.1,128.6C536.201,127.908 536.403,127.234 536.7,126.6C536.936,126.364 537.27,126.253 537.6,126.3L571,126.3C571,126.3 579.2,126.5 582.7,124.6C584.949,123.382 586.95,121.754 588.6,119.8C590.25,117.846 597.4,114.8 642.3,114.8C687.2,114.8 704.6,120.5 704.6,120.5C704.6,120.5 708.7,125.8 709.3,129.1C709.9,132.4 719.4,145.4 719.4,145.4C719.4,145.4 740.4,175.4 752.4,211.1C756.4,223 760.1,248.3 769.4,276C783.7,318.1 798.5,405.1 801.4,420.6C805.3,441.5 806,497.9 806.1,508.9L806.1,508.8C806.1,508.8 805.8,441.9 801.4,418.7C798.5,403.2 783.7,316.2 769.4,274.1C760,246.4 756.3,221.1 752.4,209.2C740.4,173.5 719.4,143.5 719.4,143.5C719.4,143.5 709.9,130.4 709.3,127.2C708.7,124 704.6,118.6 704.6,118.6C704.6,118.6 687.2,112.9 642.3,112.9C597.4,112.9 588.6,117.9 588.6,117.9C586.92,119.823 584.925,121.446 582.7,122.7C579.2,124.5 571,124.4 571,124.4L537.6,124.4C537.269,124.342 536.93,124.455 536.7,124.7C536.369,125.32 536.165,126 536.1,126.7L269.9,126.7C269.799,126.008 269.597,125.334 269.3,124.7C269.064,124.464 268.73,124.353 268.4,124.4L235,124.4C235,124.4 226.8,124.6 223.3,122.7C221.051,121.482 219.05,119.854 217.4,117.9C215.75,115.946 208.6,112.9 163.7,112.9C118.8,112.9 101.4,118.6 101.4,118.6C101.4,118.6 97.3,123.9 96.7,127.2C96.1,130.5 86.6,143.5 86.6,143.5C86.6,143.5 65.6,173.5 53.6,209.2C49.6,221.1 45.9,246.4 36.6,274.1C22.3,316.2 7.5,403.2 4.6,418.7C0.3,441.8 0,508.8 0,508.8L0,508.9C0.1,498 0.7,441.5 4.7,420.6C7.6,405.2 22.3,318.1 36.6,276Z" style="fill:white;fill-rule:nonzero;"/>
        <path d="M351.2,360C351.2,318.033 316.667,283.5 274.7,283.5C232.733,283.5 198.2,318.033 198.2,360C198.183,360.668 198.217,361.337 198.3,362C198.3,362.7 198.2,363.3 198.2,364C198.2,405.967 232.733,440.5 274.7,440.5C316.667,440.5 351.2,405.967 351.2,364C351.217,363.332 351.183,362.663 351.1,362C351.1,361.3 351.2,360.6 351.2,360Z" style="fill:rgb(61,0,133);fill-rule:nonzero;"/>
        <circle cx="274.7" cy="356" r="73" style="fill:rgb(20,0,43);"/>
        <circle cx="274.7" cy="356" r="51.5" style="fill:rgb(30,178,0);"/>
        <path d="M607.8,360C607.8,318.033 573.267,283.5 531.3,283.5C489.333,283.5 454.8,318.033 454.8,360C454.783,360.668 454.817,361.337 454.9,362C454.9,362.7 454.8,363.3 454.8,364C454.8,405.967 489.333,440.5 531.3,440.5C573.267,440.5 607.8,405.967 607.8,364C607.817,363.332 607.783,362.663 607.7,362C607.781,361.337 607.814,360.668 607.8,360Z" style="fill:rgb(61,0,133);fill-rule:nonzero;"/>
        <circle cx="531.3" cy="356" r="73" style="fill:rgb(20,0,43);"/>
        <circle cx="531.3" cy="356" r="51.5" style="fill:rgb(30,178,0);"/>
        <path d="M534.8,128C534.322,124.795 531.54,122.399 528.3,122.4L277.7,122.4C274.446,122.36 271.642,124.776 271.2,128C271.117,128.697 271.083,129.399 271.1,130.1L271.1,257.5C271.1,257.503 271.1,257.507 271.1,257.51C271.1,266.337 278.363,273.6 287.19,273.6C287.193,273.6 287.197,273.6 287.2,273.6L518.8,273.6C518.803,273.6 518.807,273.6 518.81,273.6C527.637,273.6 534.9,266.337 534.9,257.51C534.9,257.507 534.9,257.503 534.9,257.5L534.9,130.1C534.967,129.399 534.933,128.692 534.8,128Z" style="fill:rgb(18,18,18);fill-rule:nonzero;"/>
        <circle cx="652.3" cy="244.8" r="94.3" style="fill:rgb(44,0,95);"/>
        <g>
            <circle cx="153.7" cy="244.8" r="94.3" style="fill:rgb(44,0,95);"/>
            <path d="M230.4,254.1L239.9,245.2C240.139,244.982 240.275,244.673 240.275,244.35C240.275,244.027 240.139,243.718 239.9,243.5L230.4,234.6C230.191,234.397 229.911,234.284 229.62,234.284C229.007,234.284 228.502,234.787 228.5,235.4L228.5,253.2C228.5,253.21 228.5,253.219 228.5,253.229C228.5,253.859 229.019,254.379 229.65,254.379C229.925,254.379 230.191,254.28 230.4,254.1Z" style="fill:rgb(44,0,95);fill-rule:nonzero;"/>
            <path d="M145,169.8L162.8,169.8C163.413,169.798 163.916,169.293 163.916,168.68C163.916,168.389 163.803,168.109 163.6,167.9L154.7,158.4C154.482,158.161 154.173,158.025 153.85,158.025C153.527,158.025 153.218,158.161 153,158.4L144.1,167.9C143.934,168.107 143.844,168.365 143.844,168.63C143.844,169.267 144.364,169.792 145,169.8Z" style="fill:rgb(44,0,95);fill-rule:nonzero;"/>
            <path d="M77.5,234.6L68,243.5C67.761,243.718 67.625,244.027 67.625,244.35C67.625,244.673 67.761,244.982 68,245.2L77.5,254.1C77.709,254.303 77.989,254.416 78.28,254.416C78.893,254.416 79.398,253.913 79.4,253.3L79.4,235.5C79.402,235.475 79.403,235.45 79.403,235.425C79.403,234.805 78.892,234.295 78.273,234.295C77.986,234.295 77.709,234.404 77.5,234.6Z" style="fill:rgb(44,0,95);fill-rule:nonzero;"/>
            <path d="M162.8,318.8L145,318.8C144.387,318.802 143.884,319.307 143.884,319.92C143.884,320.211 143.997,320.491 144.2,320.7L153.1,330.2C153.318,330.439 153.627,330.575 153.95,330.575C154.273,330.575 154.582,330.439 154.8,330.2L163.7,320.7C163.866,320.493 163.956,320.235 163.956,319.97C163.956,319.333 163.436,318.808 162.8,318.8Z" style="fill:rgb(44,0,95);fill-rule:nonzero;"/>
        </g>
    </g>
    <g>
        <g>
            <path d="M105.2,544.5C64.7,541.7 29.4,524.2 17.9,514C6.4,503.8 0.4,482.4 0.4,482.4C0,497.4 0,508.7 0,508.7C0,508.7 4.5,562.1 36.2,583.6C67.9,605.1 92.9,597.6 92.9,597.6C92.9,597.6 126,589.4 150.7,555.7C155.966,548.116 160.678,540.162 164.8,531.9C164.7,531.9 145.6,547.2 105.2,544.5Z" style="fill:rgb(230,230,230);fill-opacity:0.1;fill-rule:nonzero;"/>
            <path d="M105.2,544.5C64.7,541.7 29.4,524.2 17.9,514C6.4,503.8 0.4,482.4 0.4,482.4C0,497.4 0,508.7 0,508.7C0,508.7 4.5,562.1 36.2,583.6C67.9,605.1 92.9,597.6 92.9,597.6C92.9,597.6 126,589.4 150.7,555.7C155.966,548.116 160.678,540.162 164.8,531.9C164.7,531.9 145.6,547.2 105.2,544.5Z" style="fill:none;fill-rule:nonzero;"/>
            <path d="M90,592.5C77.5,594.3 58.7,590.5 44.9,584.8C31.3,579.1 20.9,568.4 20.9,568.4C25.09,574.307 30.266,579.449 36.2,583.6C67.9,605.1 92.9,597.6 92.9,597.6C92.9,597.6 104.6,594.7 119.2,585.3C109.701,588.565 99.928,590.975 90,592.5Z" style="fill-opacity:0.22;fill-rule:nonzero;"/>
        </g>
        <g>
            <path d="M700.8,544.5C741.3,541.7 776.6,524.2 788.1,514C799.6,503.8 805.6,482.5 805.6,482.5C806,497.5 806,508.8 806,508.8C806,508.8 801.5,562.2 769.8,583.7C738.1,605.2 713.1,597.7 713.1,597.7C713.1,597.7 680,589.5 655.3,555.8C650.034,548.216 645.322,540.262 641.2,532C641.3,531.9 660.4,547.2 700.8,544.5Z" style="fill:rgb(230,230,230);fill-opacity:0.1;fill-rule:nonzero;"/>
            <path d="M700.8,544.5C741.3,541.7 776.6,524.2 788.1,514C799.6,503.8 805.6,482.5 805.6,482.5C806,497.5 806,508.8 806,508.8C806,508.8 801.5,562.2 769.8,583.7C738.1,605.2 713.1,597.7 713.1,597.7C713.1,597.7 680,589.5 655.3,555.8C650.034,548.216 645.322,540.262 641.2,532C641.3,531.9 660.4,547.2 700.8,544.5Z" style="fill:none;fill-rule:nonzero;"/>
            <path d="M716,592.5C728.5,594.3 747.3,590.5 761.1,584.8C774.7,579.1 785.1,568.4 785.1,568.4C780.91,574.307 775.734,579.449 769.8,583.6C738.1,605.1 713.1,597.6 713.1,597.6C713.1,597.6 701.4,594.7 686.8,585.3C696.299,588.565 706.072,590.975 716,592.5Z" style="fill-opacity:0.22;fill-rule:nonzero;"/>
        </g>
        <g>
            <path d="M240.5,143.5C247.357,143.5 253,149.143 253,156L253,174.3C253,181.157 247.357,186.8 240.5,186.8C233.643,186.8 228,181.157 228,174.3L228,156C228,149.143 233.643,143.5 240.5,143.5M240.5,141.8C232.72,141.827 226.327,148.22 226.3,156L226.3,174.3C226.3,182.09 232.71,188.5 240.5,188.5C248.29,188.5 254.7,182.09 254.7,174.3L254.7,156C254.7,155.997 254.7,155.993 254.7,155.99C254.7,148.206 248.294,141.8 240.51,141.8C240.507,141.8 240.503,141.8 240.5,141.8Z" style="fill-rule:nonzero;"/>
            <path d="M240.5,143.5C233.643,143.5 228,149.143 228,156L228,174.3C228,181.157 233.643,186.8 240.5,186.8C247.357,186.8 253,181.157 253,174.3L253,156C253,149.143 247.357,143.5 240.5,143.5Z" style="fill:rgb(16,17,26);fill-rule:nonzero;"/>
        </g>
        <g>
            <path d="M565.5,143.5C572.357,143.5 578,149.143 578,156L578,174.3C578,181.157 572.357,186.8 565.5,186.8C558.643,186.8 553,181.157 553,174.3L553,156C553,149.143 558.643,143.5 565.5,143.5M565.5,141.8C557.72,141.827 551.327,148.22 551.3,156L551.3,174.3C551.3,182.09 557.71,188.5 565.5,188.5C573.29,188.5 579.7,182.09 579.7,174.3L579.7,156C579.7,155.997 579.7,155.993 579.7,155.99C579.7,148.206 573.294,141.8 565.51,141.8C565.507,141.8 565.503,141.8 565.5,141.8Z" style="fill-rule:nonzero;"/>
            <path d="M565.5,143.5C558.643,143.5 553,149.143 553,156L553,174.3C553,181.157 558.643,186.8 565.5,186.8C572.357,186.8 578,181.157 578,174.3L578,156C578,149.143 572.357,143.5 565.5,143.5Z" style="fill:rgb(16,17,26);fill-rule:nonzero;"/>
        </g>
        <g>
            <g>
                <path d="M141.2,247.2C142.6,245.2 142.4,244.3 142.4,244.3C142.4,244.3 142.6,243.4 141.2,241.4C139.8,239.4 126.2,227.8 125.5,227.4C124.8,227 97,225.2 94.1,228.7C91.2,232.2 91.5,244.3 91.5,244.3C91.5,244.3 91.2,256.4 94.1,259.9C97,263.4 124.8,261.6 125.5,261.2C126.2,260.8 139.8,249.2 141.2,247.2Z" style="fill:rgb(30,178,0);fill-rule:nonzero;"/>
                <path d="M141.2,247.2C142.6,245.2 142.4,244.3 142.4,244.3C142.4,244.3 142.6,243.4 141.2,241.4C140.3,240.1 134.3,234.8 130,231.1C127.791,235.15 126.622,239.687 126.6,244.3C126.574,248.92 127.745,253.468 130,257.5C134.3,253.8 140.3,248.5 141.2,247.2Z" style="fill-opacity:0.25;fill-rule:nonzero;"/>
            </g>
            <g>
                <path d="M151,231.6C153,233 153.9,232.8 153.9,232.8C153.9,232.8 154.8,233 156.8,231.6C158.8,230.2 170.4,216.6 170.8,215.9C171.2,215.2 173,187.4 169.5,184.5C166,181.6 153.9,181.9 153.9,181.9C153.9,181.9 141.8,181.6 138.3,184.5C134.8,187.4 136.6,215.2 137,215.9C137.4,216.6 149,230.2 151,231.6Z" style="fill:rgb(30,178,0);fill-rule:nonzero;"/>
                <path d="M151,231.6C153,233 153.9,232.8 153.9,232.8C153.9,232.8 154.8,233 156.8,231.6C158.1,230.7 163.4,224.7 167.1,220.4C163.05,218.191 158.513,217.022 153.9,217C149.28,216.974 144.732,218.145 140.7,220.4C144.5,224.7 149.7,230.7 151,231.6Z" style="fill-opacity:0.25;fill-rule:nonzero;"/>
            </g>
            <g>
                <path d="M213.7,228.8C210.8,225.3 183,227.1 182.3,227.5C181.6,227.9 168,239.5 166.6,241.5C165.2,243.5 165.4,244.4 165.4,244.4C165.4,244.4 165.2,245.3 166.6,247.3C168,249.3 181.6,260.9 182.3,261.3C183,261.7 210.8,263.5 213.7,260C216.6,256.5 216.3,244.4 216.3,244.4C216.3,244.4 216.6,232.3 213.7,228.8Z" style="fill:rgb(30,178,0);fill-rule:nonzero;"/>
                <path d="M177.9,231.2C173.6,234.9 167.6,240.2 166.7,241.5C165.3,243.5 165.5,244.4 165.5,244.4C165.5,244.4 165.3,245.3 166.7,247.3C167.6,248.6 173.6,253.9 177.9,257.6C182.429,249.393 182.429,239.407 177.9,231.2Z" style="fill-opacity:0.25;fill-rule:nonzero;"/>
            </g>
            <g>
                <path d="M156.8,257.1C154.8,255.7 153.9,255.9 153.9,255.9C153.9,255.9 153,255.7 151,257.1C149,258.5 137.4,272.1 137,272.8C136.6,273.5 134.8,301.3 138.3,304.2C141.8,307.1 153.9,306.8 153.9,306.8C153.9,306.8 166,307.1 169.5,304.2C173,301.3 171.2,273.5 170.8,272.8C170.4,272.1 158.8,258.5 156.8,257.1Z" style="fill:rgb(30,178,0);fill-rule:nonzero;"/>
                <path d="M156.8,257.1C154.8,255.7 153.9,255.9 153.9,255.9C153.9,255.9 153,255.7 151,257.1C149.7,258 144.4,264 140.7,268.3C144.75,270.509 149.287,271.678 153.9,271.7C158.52,271.726 163.068,270.555 167.1,268.3C163.4,264 158.1,258 156.8,257.1Z" style="fill-opacity:0.25;fill-rule:nonzero;"/>
            </g>
        </g>
    </g>
    <g>
        <g>
            <circle cx="403" cy="316.4" r="4.1"/>
            <circle cx="403" cy="295.5" r="4.1"/>
            <circle cx="396.1" cy="305.7" r="4.1"/>
            <circle cx="381.4" cy="305.7" r="4.1"/>
            <circle cx="388.7" cy="316.4" r="4.1"/>
            <circle cx="388.7" cy="295.5" r="4.1"/>
            <circle cx="374.4" cy="295.5" r="4.1"/>
        </g>
        <g>
            <circle cx="409.9" cy="305.7" r="4.1"/>
            <circle cx="424.6" cy="305.7" r="4.1"/>
            <g transform="matrix(0.160226,-0.98708,0.98708,0.160226,38.06,677.53)">
                <circle cx="417.2" cy="316.4" r="4.1"/>
            </g>
            <g transform="matrix(0.160226,-0.98708,0.98708,0.160226,58.69,659.98)">
                <circle cx="417.2" cy="295.5" r="4.1"/>
            </g>
            <circle cx="431.6" cy="295.5" r="4.1"/>
        </g>
    </g>
    <g opacity="0.12">
        <path d="M403,319.5C400.941,319.476 399.19,317.938 398.9,315.9C398.9,316.1 398.8,316.2 398.8,316.4C398.8,318.649 400.651,320.5 402.9,320.5C405.149,320.5 407,318.649 407,316.4C407.016,316.227 406.981,316.054 406.9,315.9C406.768,317.936 405.04,319.531 403,319.5Z" style="fill:white;fill-rule:nonzero;"/>
        <path d="M403,299.6C403.013,299.6 403.027,299.6 403.04,299.6C405.267,299.6 407.1,297.767 407.1,295.54C407.1,295.527 407.1,295.513 407.1,295.5C407.116,295.327 407.081,295.154 407,295C406.739,297.053 404.969,298.607 402.9,298.6C400.841,298.576 399.09,297.038 398.8,295C398.8,295.2 398.7,295.3 398.7,295.5C398.872,297.754 400.74,299.535 403,299.6Z" style="fill:white;fill-rule:nonzero;"/>
        <path d="M400.2,305.7C400.216,305.527 400.181,305.354 400.1,305.2C399.839,307.253 398.069,308.807 396,308.8C393.941,308.776 392.19,307.238 391.9,305.2C391.9,305.4 391.8,305.5 391.8,305.7C391.8,305.713 391.8,305.727 391.8,305.74C391.8,307.967 393.633,309.8 395.86,309.8C395.873,309.8 395.887,309.8 395.9,309.8C395.944,309.801 395.987,309.802 396.031,309.802C398.292,309.802 400.163,307.962 400.2,305.7Z" style="fill:white;fill-rule:nonzero;"/>
        <path d="M385.4,305.2C385.139,307.253 383.369,308.807 381.3,308.8C379.241,308.776 377.49,307.238 377.2,305.2C377.2,305.4 377.1,305.5 377.1,305.7C377.1,307.949 378.951,309.8 381.2,309.8C383.449,309.8 385.3,307.949 385.3,305.7C385.5,305.5 385.5,305.4 385.4,305.2Z" style="fill:white;fill-rule:nonzero;"/>
        <path d="M388.8,319.5C386.741,319.476 384.99,317.938 384.7,315.9C384.7,316.1 384.6,316.2 384.6,316.4C384.6,318.649 386.451,320.5 388.7,320.5C390.949,320.5 392.8,318.649 392.8,316.4C392.816,316.227 392.781,316.054 392.7,315.9C392.568,317.936 390.84,319.531 388.8,319.5Z" style="fill:white;fill-rule:nonzero;"/>
        <path d="M388.8,299.6C388.813,299.6 388.827,299.6 388.84,299.6C391.067,299.6 392.9,297.767 392.9,295.54C392.9,295.527 392.9,295.513 392.9,295.5C392.916,295.327 392.881,295.154 392.8,295C392.539,297.053 390.769,298.607 388.7,298.6C386.641,298.576 384.89,297.038 384.6,295C384.6,295.2 384.5,295.3 384.5,295.5C384.64,297.768 386.528,299.568 388.8,299.6Z" style="fill:white;fill-rule:nonzero;"/>
        <path d="M378.6,295.5C378.616,295.327 378.581,295.154 378.5,295C378.239,297.053 376.469,298.607 374.4,298.6C372.341,298.576 370.59,297.038 370.3,295C370.3,295.2 370.2,295.3 370.2,295.5C370.2,295.513 370.2,295.527 370.2,295.54C370.2,297.767 372.033,299.6 374.26,299.6C374.273,299.6 374.287,299.6 374.3,299.6C376.598,299.639 378.53,297.798 378.6,295.5Z" style="fill:white;fill-rule:nonzero;"/>
        <path d="M414,305.2C413.739,307.253 411.969,308.807 409.9,308.8C407.841,308.776 406.09,307.238 405.8,305.2C405.8,305.4 405.7,305.5 405.7,305.7C405.7,307.949 407.551,309.8 409.8,309.8C412.049,309.8 413.9,307.949 413.9,305.7C414.1,305.5 414,305.4 414,305.2Z" style="fill:white;fill-rule:nonzero;"/>
        <path d="M424.6,308.8C422.541,308.776 420.79,307.238 420.5,305.2C420.5,305.4 420.4,305.5 420.4,305.7C420.4,307.949 422.251,309.8 424.5,309.8C426.749,309.8 428.6,307.949 428.6,305.7C428.616,305.527 428.581,305.354 428.5,305.2C428.438,307.196 426.779,308.804 424.782,308.804C424.721,308.804 424.661,308.803 424.6,308.8Z" style="fill:white;fill-rule:nonzero;"/>
        <path d="M417.3,319.5C415.241,319.476 413.49,317.938 413.2,315.9C413.2,316.1 413.1,316.2 413.1,316.4C413.1,318.649 414.951,320.5 417.2,320.5C419.449,320.5 421.3,318.649 421.3,316.4C421.316,316.227 421.281,316.054 421.2,315.9C421.068,317.936 419.34,319.531 417.3,319.5Z" style="fill:white;fill-rule:nonzero;"/>
        <path d="M417.3,299.6C417.313,299.6 417.327,299.6 417.34,299.6C419.567,299.6 421.4,297.767 421.4,295.54C421.4,295.527 421.4,295.513 421.4,295.5C421.416,295.327 421.381,295.154 421.3,295C421.039,297.053 419.269,298.607 417.2,298.6C415.141,298.576 413.39,297.038 413.1,295C413.1,295.2 413,295.3 413,295.5C413.14,297.768 415.028,299.568 417.3,299.6Z" style="fill:white;fill-rule:nonzero;"/>
        <path d="M431.6,298.6C429.541,298.576 427.79,297.038 427.5,295C427.5,295.2 427.4,295.3 427.4,295.5C427.4,297.749 429.251,299.6 431.5,299.6C433.749,299.6 435.6,297.749 435.6,295.5C435.616,295.327 435.581,295.154 435.5,295C435.368,297.036 433.64,298.631 431.6,298.6Z" style="fill:white;fill-rule:nonzero;"/>
    </g>
    <path d="M436.6,421L368.7,421C365.9,421 364.1,421.6 364.1,418.8C364.1,416.057 366.357,413.8 369.1,413.8L437,413.8C439.743,413.8 442,416.057 442,418.8C442.1,421.5 439.4,421 436.6,421Z" style="fill:rgb(11,11,15);fill-rule:nonzero;"/>
    <path d="M408.3,418.8L371.8,418.8C371.306,418.8 370.9,418.394 370.9,417.9C370.9,416.803 371.803,415.9 372.9,415.9L407.1,415.9C408.197,415.9 409.1,416.803 409.1,417.9C409.107,417.943 409.111,417.987 409.111,418.031C409.111,418.454 408.764,418.801 408.341,418.801C408.327,418.801 408.314,418.801 408.3,418.8Z" style="fill-rule:nonzero;"/>
    <path d="M430.5,419.6L426.3,419.6C425.377,419.574 424.626,418.823 424.6,417.9C424.6,416.364 425.864,415.1 427.4,415.1L429.3,415.1C430.836,415.1 432.1,416.364 432.1,417.9C432.109,417.968 432.114,418.036 432.114,418.104C432.114,418.927 431.437,419.604 430.614,419.604C430.576,419.604 430.538,419.603 430.5,419.6Z" style="fill-rule:nonzero;"/>
    <g>
        <path d="M530.4,124.3C530.4,123.258 529.542,122.4 528.5,122.4L277.4,122.4C276.358,122.4 275.5,123.258 275.5,124.3L275.5,253.5C275.511,262.054 282.546,269.089 291.1,269.1L514.9,269.1C523.454,269.089 530.489,262.054 530.5,253.5L530.5,130.4L530.4,124.3Z" style="fill:rgb(8,8,8);fill-rule:nonzero;"/>
        <g opacity="0.12">
            <path d="M275.5,253.5C275.511,262.054 282.546,269.089 291.1,269.1L514.9,269.1C523.454,269.089 530.489,262.054 530.5,253.5L530.5,147L275.5,147L275.5,253.5Z" style="fill:none;fill-rule:nonzero;"/>
        </g>
    </g>
    <g>
        <g>
            <g>
                <path d="M709.9,271C695.472,271 683.6,259.128 683.6,244.7C683.6,230.272 695.472,218.4 709.9,218.4C724.328,218.4 736.2,230.272 736.2,244.7C736.184,259.122 724.322,270.984 709.9,271Z" style="fill:rgb(30,178,0);fill-rule:nonzero;"/>
                <path d="M709.9,219.5C723.733,219.527 735.1,230.917 735.1,244.75C735.1,258.602 723.702,270 709.85,270C695.998,270 684.6,258.602 684.6,244.75C684.6,244.733 684.6,244.717 684.6,244.7C684.671,230.865 696.065,219.516 709.9,219.5M709.9,217.5C694.924,217.5 682.6,229.824 682.6,244.8C682.6,259.776 694.924,272.1 709.9,272.1C724.876,272.1 737.2,259.776 737.2,244.8C737.178,229.832 724.868,217.522 709.9,217.5Z" style="fill:rgb(30,178,0);fill-rule:nonzero;"/>
            </g>
            <path d="M709.9,225.9C699.532,225.9 691,234.432 691,244.8C691,255.168 699.532,263.7 709.9,263.7C720.268,263.7 728.8,255.168 728.8,244.8C728.773,234.442 720.258,225.927 709.9,225.9ZM709.9,260.8C701.123,260.8 693.9,253.577 693.9,244.8C693.9,236.023 701.123,228.8 709.9,228.8C718.677,228.8 725.9,236.023 725.9,244.8C725.9,253.577 718.677,260.8 709.9,260.8Z" style="fill-rule:nonzero;"/>
        </g>
        <g>
            <g>
                <path d="M652.3,328.6C637.872,328.6 626,316.728 626,302.3C626,287.872 637.872,276 652.3,276C666.728,276 678.6,287.872 678.6,302.3C678.584,316.722 666.722,328.584 652.3,328.6Z" style="fill:rgb(30,178,0);fill-rule:nonzero;"/>
                <path d="M652.3,277.1C666.179,277.1 677.6,288.521 677.6,302.4C677.6,316.279 666.179,327.7 652.3,327.7C638.421,327.7 627,316.279 627,302.4C627.016,288.527 638.427,277.116 652.3,277.1M652.3,275.1C637.324,275.1 625,287.424 625,302.4C625,317.376 637.324,329.7 652.3,329.7C667.276,329.7 679.6,317.376 679.6,302.4C679.578,287.432 667.268,275.122 652.3,275.1Z" style="fill:rgb(30,178,0);fill-rule:nonzero;"/>
            </g>
            <path d="M666.7,290L664.7,288L652.3,300.4L640,288L638,290L650.3,302.4L638,314.7L640,316.7L652.3,304.4L664.7,316.7L666.7,314.7L654.3,302.4L666.7,290Z" style="fill-rule:nonzero;"/>
        </g>
        <g>
            <g>
                <path d="M594.8,271C580.372,271 568.5,259.128 568.5,244.7C568.5,230.272 580.372,218.4 594.8,218.4C609.228,218.4 621.1,230.272 621.1,244.7C621.084,259.122 609.222,270.984 594.8,271Z" style="fill:rgb(30,178,0);fill-rule:nonzero;"/>
                <path d="M594.7,219.5C608.533,219.527 619.9,230.917 619.9,244.75C619.9,258.602 608.502,270 594.65,270C580.798,270 569.4,258.602 569.4,244.75C569.4,244.733 569.4,244.717 569.4,244.7C569.471,230.865 580.865,219.516 594.7,219.5M594.7,217.5C579.724,217.5 567.4,229.824 567.4,244.8C567.4,259.776 579.724,272.1 594.7,272.1C609.676,272.1 622,259.776 622,244.8C621.978,229.832 609.668,217.522 594.7,217.5Z" style="fill:rgb(30,178,0);fill-rule:nonzero;"/>
            </g>
            <path d="M609.1,230.4L580.5,230.4L580.5,259L609.1,259L609.1,230.4ZM606.3,256.3L583.3,256.3L583.3,233.3L606.3,233.3L606.3,256.3Z" style="fill-rule:nonzero;"/>
        </g>
        <g>
            <g>
                <path d="M652.3,213.5C637.872,213.5 626,201.628 626,187.2C626,172.772 637.872,160.9 652.3,160.9C666.728,160.9 678.6,172.772 678.6,187.2C678.584,201.622 666.722,213.484 652.3,213.5Z" style="fill:rgb(30,178,0);fill-rule:nonzero;"/>
                <path d="M652.3,162C666.179,162 677.6,173.421 677.6,187.3C677.6,201.179 666.179,212.6 652.3,212.6C638.421,212.6 627,201.179 627,187.3C627.016,173.427 638.427,162.016 652.3,162M652.3,160C637.324,160 625,172.324 625,187.3C625,202.276 637.324,214.6 652.3,214.6C667.276,214.6 679.6,202.276 679.6,187.3C679.578,172.332 667.268,160.022 652.3,160Z" style="fill:rgb(30,178,0);fill-rule:nonzero;"/>
            </g>
            <path d="M668.3,195.2L652.3,167.6L636.3,195.2L634.7,198L669.9,198L668.3,195.2ZM665,195.2L639.6,195.2L652.3,173.3L665,195.2Z" style="fill-rule:nonzero;"/>
        </g>
    </g>
    <g>
        <circle cx="403" cy="362" r="20.2" style="fill:rgb(5,5,5);stroke:black;stroke-width:2px;"/>
        <g>
            <path d="M404.1,372.9L404.1,355.8C404.06,355.44 404.168,355.078 404.4,354.8C404.554,354.574 404.85,354.49 405.1,354.6C405.7,354.8 406,355.3 406,356.3L406,363.2C406.65,363.533 407.37,363.704 408.1,363.7C408.672,363.703 409.231,363.528 409.7,363.2C410.7,362.5 411.2,361.3 411.2,359.5C411.321,357.97 410.896,356.446 410,355.2C408.905,353.966 407.483,353.065 405.9,352.6C404.6,352.2 403.4,351.8 402.3,351.5C401.2,351.2 400.3,351 399.4,350.8L399.4,371.4L404.1,372.9Z" style="fill:rgb(242,242,242);fill-rule:nonzero;"/>
            <path d="M399,367.6L397.3,368.2L396.4,368.6L394.8,368.9L393.3,368.7C393,368.5 392.9,368.3 393.1,368.1C393.3,367.9 393.3,368 393.4,367.9C393.5,367.8 393.7,367.8 393.8,367.7L394.9,367.3L399,365.8L399,363.1L397.3,363.6L391.8,365.6L390.8,366C389.3,366.6 388.6,367.2 388.6,367.8C388.7,368.6 389.6,369.3 391.3,369.7C392.702,370.071 394.15,370.239 395.6,370.2C396.706,370.191 397.81,370.09 398.9,369.9L398.9,367.6L399,367.6Z" style="fill:rgb(242,242,242);fill-rule:nonzero;"/>
            <path d="M414.8,365.3C413.989,365.017 413.151,364.816 412.3,364.7C411.474,364.567 410.634,364.533 409.8,364.6C408.862,364.65 407.927,364.751 407,364.9C406.111,365.089 405.241,365.356 404.4,365.7L404.4,368.5L408.3,367.1L409.9,366.6L411,366.3L412.4,366.3C412.7,366.4 413,366.5 413.1,366.7C413.2,366.9 412.9,367.1 412.3,367.3L410.9,367.8L404.4,370.2L404.4,372.9L407.9,371.6L414.3,369.3L415,368.9C416.5,368.4 417.2,367.7 417.2,367C417.2,366.3 416.4,365.8 414.8,365.3Z" style="fill:rgb(242,242,242);fill-rule:nonzero;"/>
        </g>
    </g>
    <g>
        <g>
            <path d="M697.2,109.9C697.211,109.114 696.787,108.382 696.1,108C691.6,105.1 672.7,94.4 644.6,94.4C617.7,94.4 603.5,100.3 599.5,102.4C598.752,102.782 598.285,103.56 598.3,104.4C598.315,105.24 608.1,101.5 645.8,101.5C683.5,101.5 697.2,109.9 697.2,109.9Z" style="fill:rgb(21,125,0);fill-rule:nonzero;"/>
            <path d="M697.1,116.8L697.1,109.9C697.1,109.9 683.4,101.5 645.7,101.5C608,101.5 598.2,104.4 598.2,104.4L598.2,115.4C605.9,114.1 619.4,112.8 642.3,112.8C670.8,112.9 688.2,115.2 697.1,116.8Z" style="fill:rgb(30,178,0);fill-rule:nonzero;"/>
        </g>
        <g>
            <path d="M108.8,109.9C108.789,109.114 109.213,108.382 109.9,108C114.4,105.1 133.3,94.4 161.4,94.4C188.3,94.4 202.5,100.3 206.5,102.4C207.248,102.782 207.715,103.56 207.7,104.4C207.685,105.24 197.9,101.5 160.2,101.5C122.5,101.5 108.8,109.9 108.8,109.9Z" style="fill:rgb(21,125,0);fill-rule:nonzero;"/>
            <path d="M108.9,116.8L108.9,109.9C108.9,109.9 122.6,101.5 160.3,101.5C198,101.5 207.8,104.4 207.8,104.4L207.8,115.4C200.1,114.1 186.6,112.8 163.7,112.8C135.2,112.9 117.8,115.2 108.9,116.8Z" style="fill:rgb(30,178,0);fill-rule:nonzero;"/>
        </g>
    </g>
    <g>
        <g>
            <g>
                <path d="M697.2,90.8C697.2,90.8 664.5,87.6 646.6,87.6C628.7,87.6 598.2,90 598.2,90C598.2,90 601.3,45.3 603,38C604.7,30.7 610.7,16.7 619.9,10.1C629.1,3.5 631.8,0 642.6,0C653.4,0 668,6.4 677.2,21.4C686.4,36.4 697.2,90.8 697.2,90.8Z" style="fill:rgb(30,178,0);fill-rule:nonzero;"/>
                <path d="M598.7,83.2C598.7,83.2 624.8,78.8 647.7,78.8C670.6,78.8 695.6,83.2 695.6,83.2C696.6,87.9 697.2,90.8 697.2,90.8C697.2,90.8 664.5,87.6 646.6,87.6C628.7,87.6 598.2,90 598.2,90C598.2,90 598.4,87.3 598.7,83.2Z" style="fill:rgb(30,178,0);fill-rule:nonzero;"/>
            </g>
            <g>
                <path d="M648.7,65.7L645.5,68.3C644.288,69.492 643.572,71.101 643.5,72.8L653.3,72.8L653.3,70.2L647,70.2C647.557,69.425 648.273,68.777 649.1,68.3C650.092,67.727 651.001,67.021 651.8,66.2C652.641,65.308 653.107,64.126 653.1,62.9C653.147,61.647 652.633,60.437 651.7,59.6C650.724,58.779 649.475,58.351 648.2,58.4C645.1,58.4 643.5,60.1 643.5,63.4L646.2,63.4C646.2,61.6 646.9,60.7 648.3,60.7C648.364,60.693 648.428,60.69 648.492,60.69C649.495,60.69 650.322,61.516 650.322,62.52C650.322,62.614 650.314,62.707 650.3,62.8C650.5,63.9 649.9,64.8 648.7,65.7Z" style="fill-rule:nonzero;"/>
                <path d="M631.1,67.2L634.1,67.2C635.6,67.2 636.4,67.8 636.5,69.1C636.6,70.4 636.7,71.6 636.8,72.9L640.1,72.9L640.1,72.5C639.6,72.3 639.4,71.8 639.4,71C639.395,70.73 639.428,70.46 639.5,70.2L639.5,69.5C639.658,68.08 638.947,66.697 637.7,66C639.131,65.52 640.048,64.102 639.9,62.6C639.982,61.449 639.496,60.327 638.6,59.6C637.692,58.887 636.553,58.531 635.4,58.6L628.1,58.6L628.1,72.9L631.1,72.9L631.1,67.2ZM631.1,61L634.8,61C636.2,61 636.9,61.6 636.9,62.9C636.9,64.2 636.1,64.8 634.6,64.8L631.1,64.8L631.1,61Z" style="fill-rule:nonzero;"/>
            </g>
        </g>
        <g>
            <g>
                <path d="M108.8,90.8C108.8,90.8 141.5,87.6 159.4,87.6C177.3,87.6 207.7,90 207.7,90C207.7,90 204.6,45.3 202.9,38C201.2,30.7 195.2,16.7 186,10.1C176.8,3.5 174.2,0 163.4,0C152.6,0 138,6.4 128.8,21.4C119.6,36.4 108.8,90.8 108.8,90.8Z" style="fill:rgb(30,178,0);fill-rule:nonzero;"/>
                <path d="M207.3,83.2C207.3,83.2 181.2,78.8 158.3,78.8C135.4,78.8 110.4,83.2 110.4,83.2C109.4,87.9 108.8,90.8 108.8,90.8C108.8,90.8 141.5,87.6 159.4,87.6C177.3,87.6 207.7,90 207.7,90C207.7,90 207.6,87.3 207.3,83.2Z" style="fill:rgb(30,178,0);fill-rule:nonzero;"/>
            </g>
            <g>
                <path d="M173.3,65.7L170.1,68.3C168.888,69.492 168.172,71.101 168.1,72.8L177.9,72.8L177.9,70.2L171.7,70.2C172.257,69.425 172.973,68.777 173.8,68.3C174.792,67.727 175.701,67.021 176.5,66.2C177.341,65.308 177.807,64.126 177.8,62.9C177.847,61.647 177.333,60.437 176.4,59.6C175.424,58.779 174.175,58.351 172.9,58.4C169.8,58.4 168.2,60.1 168.2,63.4L170.9,63.4C170.9,61.6 171.6,60.7 173,60.7C173.064,60.693 173.128,60.69 173.192,60.69C174.195,60.69 175.022,61.516 175.022,62.52C175.022,62.614 175.014,62.707 175,62.8C175.1,63.9 174.5,64.8 173.3,65.7Z" style="fill-rule:nonzero;"/>
                <path d="M164.8,70.2L157.8,70.2L157.8,58.5L154.7,58.5L154.7,72.8L164.8,72.8L164.8,70.2Z" style="fill-rule:nonzero;"/>
            </g>
        </g>
    </g>
    <g>
        <g>
            <path d="M547.6,134.6C547.45,136.742 545.647,138.423 543.5,138.423C541.353,138.423 539.55,136.742 539.4,134.6C539.405,132.508 541.128,130.79 543.22,130.79C543.313,130.79 543.407,130.793 543.5,130.8C543.613,130.79 543.727,130.785 543.84,130.785C545.903,130.785 547.6,132.482 547.6,134.545C547.6,134.563 547.6,134.582 547.6,134.6ZM540.9,134.6C540.894,134.671 540.891,134.742 540.891,134.813C540.891,136.179 542.015,137.303 543.381,137.303C543.421,137.303 543.46,137.302 543.5,137.3C543.522,137.301 543.543,137.301 543.565,137.301C544.958,137.301 546.105,136.154 546.105,134.761C546.105,134.707 546.103,134.654 546.1,134.6C546.1,133.174 544.926,132 543.5,132C542.074,132 540.9,133.174 540.9,134.6Z" style="fill:rgb(204,204,204);fill-rule:nonzero;"/>
            <path d="M548.9,131L552.7,131C555.1,131 555.6,132.3 555.6,133.2C555.6,134.1 555.1,135.4 552.7,135.4L550.4,135.4L550.4,138.2L548.9,138.2L548.9,131ZM550.4,134.4L552.6,134.4C553.3,134.4 554.1,134.1 554.1,133.2C554.1,132.3 553.4,132 552.6,132L550.4,132L550.4,134.4Z" style="fill:rgb(204,204,204);fill-rule:nonzero;"/>
            <path d="M556.1,131L563,131L563,132.1L560.3,132.1L560.3,138.2L558.8,138.2L558.8,132L556.1,132L556.1,131Z" style="fill:rgb(204,204,204);fill-rule:nonzero;"/>
            <rect x="564.1" y="131" width="1.5" height="7.2" style="fill:rgb(204,204,204);fill-rule:nonzero;"/>
            <path d="M575.1,134.6C574.95,136.742 573.147,138.423 571,138.423C568.853,138.423 567.05,136.742 566.9,134.6C566.905,132.508 568.628,130.79 570.72,130.79C570.813,130.79 570.907,130.793 571,130.8C571.113,130.79 571.227,130.785 571.34,130.785C573.403,130.785 575.1,132.482 575.1,134.545C575.1,134.563 575.1,134.582 575.1,134.6ZM568.4,134.6C568.394,134.671 568.391,134.742 568.391,134.813C568.391,136.179 569.515,137.303 570.881,137.303C570.921,137.303 570.96,137.302 571,137.3C571.022,137.301 571.043,137.301 571.065,137.301C572.458,137.301 573.605,136.154 573.605,134.761C573.605,134.707 573.603,134.654 573.6,134.6C573.6,133.174 572.426,132 571,132C569.574,132 568.4,133.174 568.4,134.6Z" style="fill:rgb(204,204,204);fill-rule:nonzero;"/>
            <path d="M576.5,131L578.1,131L582,136.3L582,131L583.4,131L583.4,138.2L581.8,138.2L577.9,132.9L577.9,138.2L576.5,138.2L576.5,131Z" style="fill:rgb(204,204,204);fill-rule:nonzero;"/>
            <path d="M586.2,135.8C586.2,136.9 587.2,137.3 588.4,137.3C589.6,137.3 590.2,136.7 590.2,136.2C590.215,135.772 589.918,135.391 589.5,135.3C588.9,135.1 588.1,135 586.9,134.7C585.4,134.4 585,133.6 585,132.9C585,131.4 586.6,130.8 588.1,130.8C589.9,130.8 591.4,131.6 591.4,133.1L589.9,133.1C589.8,132.2 589.1,131.8 588.1,131.8C587.4,131.8 586.5,132 586.5,132.7C586.5,133.2 586.9,133.5 587.5,133.6C588.345,133.75 589.179,133.95 590,134.2C590.9,134.357 591.594,135.092 591.7,136C591.7,137.6 590,138.3 588.3,138.3C586.3,138.3 584.8,137.5 584.7,135.7L586.2,135.7L586.2,135.8Z" style="fill:rgb(204,204,204);fill-rule:nonzero;"/>
        </g>
        <g>
            <path d="M222.2,135.8C222.2,136.9 223.2,137.3 224.4,137.3C225.6,137.3 226.2,136.7 226.2,136.2C226.215,135.772 225.918,135.391 225.5,135.3C224.9,135.1 224.1,135 222.9,134.7C221.4,134.4 221,133.6 221,132.9C221,131.4 222.6,130.8 224.1,130.8C225.9,130.8 227.4,131.6 227.4,133.1L225.9,133.1C225.8,132.2 225.1,131.8 224.1,131.8C223.4,131.8 222.5,132 222.5,132.7C222.5,133.2 222.9,133.5 223.5,133.6C224.345,133.75 225.179,133.95 226,134.2C226.9,134.357 227.594,135.092 227.7,136C227.7,137.6 226,138.3 224.3,138.3C222.3,138.3 220.8,137.5 220.7,135.7L222.2,135.7L222.2,135.8Z" style="fill:rgb(204,204,204);fill-rule:nonzero;"/>
            <path d="M228.9,131L230.4,131L230.4,133.9L234.3,133.9L234.3,131L235.8,131L235.8,138.2L234.3,138.2L234.3,135L230.4,135L230.4,138.2L228.9,138.2L228.9,131Z" style="fill:rgb(204,204,204);fill-rule:nonzero;"/>
            <path d="M239.9,131L241.5,131L244.8,138.2L243.2,138.2L242.4,136.3L239,136.3L238.2,138.2L236.7,138.2L239.9,131ZM239.4,135.3L242,135.3L240.7,132.2L239.4,135.3Z" style="fill:rgb(204,204,204);fill-rule:nonzero;"/>
            <path d="M245.6,131L249.7,131C251.6,131 252.5,131.7 252.5,132.9C252.533,133.757 251.939,134.521 251.1,134.7C251.859,134.773 252.435,135.438 252.4,136.2C252.4,137 252.5,137.8 252.9,138.1L251.3,138.1C251.13,137.76 251.061,137.378 251.1,137C251.1,135.7 250.8,135.1 249.4,135.1L247.2,135.1L247.2,138.1L245.7,138.1L245.7,131L245.6,131ZM247.1,134.2L249.6,134.2C250.6,134.2 251.1,133.8 251.1,133.1C251.1,132.2 250.4,132 249.6,132L247.2,132L247.2,134.2L247.1,134.2Z" style="fill:rgb(204,204,204);fill-rule:nonzero;"/>
            <path d="M254.1,131L260.3,131L260.3,132.1L255.6,132.1L255.6,134L259.9,134L259.9,135L255.6,135L255.6,137.1L260.3,137.1L260.3,138.2L254.1,138.2L254.1,131Z" style="fill:rgb(204,204,204);fill-rule:nonzero;"/>
        </g>
    </g>
</svg>
