<?xml version="1.0" encoding="UTF-8" standalone="no"?>
<!DOCTYPE svg PUBLIC "-//W3C//DTD SVG 1.1//EN" "http://www.w3.org/Graphics/SVG/1.1/DTD/svg11.dtd">
<svg id="Layer_1" data-name="Layer 1" xmlns="http://www.w3.org/2000/svg" width="224.1" height="112.4" viewBox="0 0 224.1 112.4">
    <g>
        <g>
            <path d="M27.3,53.6C12.872,53.6 1,41.728 1,27.3C1,12.872 12.872,1 27.3,1C41.728,1 53.6,12.872 53.6,27.3C53.584,41.722 41.722,53.584 27.3,53.6Z" style="fill:rgb(30,178,0);fill-rule:nonzero;"/>
            <path d="M27.3,2C41.179,2 52.6,13.421 52.6,27.3C52.6,41.179 41.179,52.6 27.3,52.6C13.421,52.6 2,41.179 2,27.3C2.016,13.427 13.427,2.016 27.3,2M27.3,0C12.324,-0 0,12.324 0,27.3C0,42.276 12.324,54.6 27.3,54.6C42.276,54.6 54.6,42.276 54.6,27.3C54.578,12.332 42.268,0.022 27.3,-0Z" style="fill:rgb(19,111,0);fill-rule:nonzero;"/>
        </g>
        <path d="M41.7,14.9L39.7,12.9L27.3,25.3L14.9,12.9L12.9,14.9L25.3,27.3L12.9,39.7L14.9,41.7L27.3,29.3L39.7,41.7L41.7,39.7L29.3,27.3L41.7,14.9Z" style="fill-rule:nonzero;"/>
    </g>
    <g>
        <g>
            <path d="M83.8,53.5C83.767,53.5 83.733,53.5 83.7,53.5C69.272,53.5 57.4,41.628 57.4,27.2C57.4,12.772 69.272,0.9 83.7,0.9C98.128,0.9 110,12.772 110,27.2C110,27.233 110,27.267 110,27.3C109.929,41.646 98.146,53.429 83.8,53.5Z" style="fill:rgb(30,178,0);fill-rule:nonzero;"/>
            <path d="M83.8,2.1C97.679,2.1 109.1,13.521 109.1,27.4C109.1,41.279 97.679,52.7 83.8,52.7C69.921,52.7 58.5,41.279 58.5,27.4C58.516,13.527 69.927,2.116 83.8,2.1M83.8,0.1C83.767,0.1 83.733,0.1 83.7,0.1C68.724,0.1 56.4,12.423 56.4,27.4C56.4,42.376 68.724,54.7 83.7,54.7C98.677,54.7 111,42.376 111,27.4C111,27.367 111,27.333 111,27.3C110.924,12.407 98.693,0.176 83.8,0.1Z" style="fill:rgb(19,111,0);fill-rule:nonzero;"/>
        </g>
        <path d="M83.8,8.4C73.432,8.4 64.9,16.932 64.9,27.3C64.9,37.668 73.432,46.2 83.8,46.2C94.168,46.2 102.7,37.668 102.7,27.3C102.673,16.942 94.158,8.427 83.8,8.4ZM83.8,43.3C75.023,43.3 67.8,36.077 67.8,27.3C67.8,18.523 75.023,11.3 83.8,11.3C92.577,11.3 99.8,18.523 99.8,27.3C99.8,36.077 92.577,43.3 83.8,43.3Z" style="fill-rule:nonzero;"/>
    </g>
    <g>
        <g>
            <path d="M140.3,54.1C125.872,54.1 114,42.228 114,27.8C114,13.372 125.872,1.5 140.3,1.5C154.728,1.5 166.6,13.372 166.6,27.8C166.584,42.222 154.722,54.084 140.3,54.1Z" style="fill:rgb(30,178,0);fill-rule:nonzero;"/>
            <path d="M140.3,2.7C154.179,2.7 165.6,14.121 165.6,28C165.6,41.879 154.179,53.3 140.3,53.3C126.421,53.3 115,41.879 115,28C115.016,14.127 126.427,2.716 140.3,2.7M140.3,0.7C125.324,0.7 113,13.024 113,28C113,42.976 125.324,55.3 140.3,55.3C155.276,55.3 167.6,42.976 167.6,28C167.578,13.032 155.268,0.722 140.3,0.7Z" style="fill:rgb(19,111,0);fill-rule:nonzero;"/>
        </g>
        <path d="M154.6,13.5L126,13.5L126,42.1L154.6,42.1L154.6,13.5ZM151.8,39.4L128.8,39.4L128.8,16.4L151.8,16.4L151.8,39.4Z" style="fill-rule:nonzero;"/>
    </g>
    <g>
        <g>
            <path d="M196.8,54.8C182.372,54.8 170.5,42.928 170.5,28.5C170.5,14.072 182.372,2.2 196.8,2.2C211.228,2.2 223.1,14.072 223.1,28.5C223.084,42.922 211.222,54.784 196.8,54.8Z" style="fill:rgb(30,178,0);fill-rule:nonzero;"/>
            <path d="M196.8,3.3C210.679,3.3 222.1,14.721 222.1,28.6C222.1,42.479 210.679,53.9 196.8,53.9C182.921,53.9 171.5,42.479 171.5,28.6C171.516,14.727 182.927,3.316 196.8,3.3M196.8,1.3C181.824,1.3 169.5,13.624 169.5,28.6C169.5,43.576 181.824,55.9 196.8,55.9C211.776,55.9 224.1,43.576 224.1,28.6C224.078,13.632 211.768,1.322 196.8,1.3Z" style="fill:rgb(19,111,0);fill-rule:nonzero;"/>
        </g>
        <path d="M212.8,36.6L196.8,9L180.8,36.6L179.2,39.4L214.4,39.4L212.8,36.6ZM209.5,36.6L184.1,36.6L196.8,14.7L209.5,36.6Z" style="fill-rule:nonzero;"/>
    </g>
    <g>
        <g>
            <path d="M27.3,111.4C12.872,111.4 1,99.528 1,85.1C1,70.672 12.872,58.8 27.3,58.8C41.728,58.8 53.6,70.672 53.6,85.1C53.584,99.522 41.722,111.384 27.3,111.4Z" style="fill:rgb(119,55,194);fill-rule:nonzero;"/>
            <path d="M27.3,59.8C41.179,59.8 52.6,71.221 52.6,85.1C52.6,98.979 41.179,110.4 27.3,110.4C13.421,110.4 2,98.979 2,85.1C2.016,71.227 13.427,59.816 27.3,59.8M27.3,57.8C12.324,57.8 0,70.124 0,85.1C0,100.076 12.324,112.4 27.3,112.4C42.276,112.4 54.6,100.076 54.6,85.1C54.578,70.132 42.268,57.822 27.3,57.8Z" style="fill:rgb(99,17,197);fill-rule:nonzero;"/>
        </g>
        <path d="M41.7,72.7L39.7,70.7L27.3,83.1L14.9,70.7L12.9,72.7L25.3,85.1L12.9,97.5L14.9,99.5L27.3,87.1L39.7,99.5L41.7,97.5L29.3,85.1L41.7,72.7Z" style="fill:white;fill-rule:nonzero;"/>
    </g>
    <g>
        <g>
            <path d="M83.8,111.2C69.372,111.2 57.5,99.328 57.5,84.9C57.5,70.472 69.372,58.6 83.8,58.6C98.228,58.6 110.1,70.472 110.1,84.9C110.084,99.322 98.222,111.184 83.8,111.2Z" style="fill:rgb(119,55,194);fill-rule:nonzero;"/>
            <path d="M83.8,59.8C97.679,59.8 109.1,71.221 109.1,85.1C109.1,98.979 97.679,110.4 83.8,110.4C69.921,110.4 58.5,98.979 58.5,85.1C58.516,71.227 69.927,59.816 83.8,59.8M83.8,57.8C68.824,57.8 56.5,70.124 56.5,85.1C56.5,100.076 68.824,112.4 83.8,112.4C98.776,112.4 111.1,100.076 111.1,85.1C111.078,70.132 98.768,57.822 83.8,57.8Z" style="fill:rgb(99,17,197);fill-rule:nonzero;"/>
        </g>
        <path d="M83.8,66.1C73.432,66.1 64.9,74.632 64.9,85C64.9,95.368 73.432,103.9 83.8,103.9C94.168,103.9 102.7,95.368 102.7,85C102.673,74.642 94.158,66.127 83.8,66.1ZM83.8,101C75.023,101 67.8,93.777 67.8,85C67.8,76.223 75.023,69 83.8,69C92.577,69 99.8,76.223 99.8,85C99.8,93.777 92.577,101 83.8,101Z" style="fill:white;fill-rule:nonzero;"/>
    </g>
    <g>
        <g>
            <path d="M140.3,111.2C125.872,111.2 114,99.328 114,84.9C114,70.472 125.872,58.6 140.3,58.6C154.728,58.6 166.6,70.472 166.6,84.9C166.584,99.322 154.722,111.184 140.3,111.2Z" style="fill:rgb(119,55,194);fill-rule:nonzero;"/>
            <path d="M140.3,59.8C154.179,59.8 165.6,71.221 165.6,85.1C165.6,98.979 154.179,110.4 140.3,110.4C126.421,110.4 115,98.979 115,85.1C115.016,71.227 126.427,59.816 140.3,59.8M140.3,57.8C125.324,57.8 113,70.124 113,85.1C113,100.076 125.324,112.4 140.3,112.4C155.276,112.4 167.6,100.076 167.6,85.1C167.578,70.132 155.268,57.822 140.3,57.8Z" style="fill:rgb(99,17,197);fill-rule:nonzero;"/>
        </g>
        <path d="M154.6,70.6L126,70.6L126,99.2L154.6,99.2L154.6,70.6ZM151.8,96.5L128.8,96.5L128.8,73.5L151.8,73.5L151.8,96.5Z" style="fill:white;fill-rule:nonzero;"/>
    </g>
    <g>
        <g>
            <path d="M196.8,111.3C182.372,111.3 170.5,99.428 170.5,85C170.5,70.572 182.372,58.7 196.8,58.7C211.228,58.7 223.1,70.572 223.1,85C223.084,99.422 211.222,111.284 196.8,111.3Z" style="fill:rgb(119,55,194);fill-rule:nonzero;"/>
            <path d="M196.8,59.8C210.679,59.8 222.1,71.221 222.1,85.1C222.1,98.979 210.679,110.4 196.8,110.4C182.921,110.4 171.5,98.979 171.5,85.1C171.516,71.227 182.927,59.816 196.8,59.8M196.8,57.8C181.824,57.8 169.5,70.124 169.5,85.1C169.5,100.076 181.824,112.4 196.8,112.4C211.776,112.4 224.1,100.076 224.1,85.1C224.078,70.132 211.768,57.822 196.8,57.8Z" style="fill:rgb(99,17,197);fill-rule:nonzero;"/>
        </g>
        <path d="M212.8,93L196.8,65.4L180.8,93L179.2,95.8L214.4,95.8L212.8,93ZM209.5,93L184.1,93L196.8,71.1L209.5,93Z" style="fill:white;fill-rule:nonzero;"/>
    </g>
</svg>
