<?xml version="1.0" encoding="UTF-8" standalone="no"?>
<!DOCTYPE svg PUBLIC "-//W3C//DTD SVG 1.1//EN" "http://www.w3.org/Graphics/SVG/1.1/DTD/svg11.dtd">
<svg width="100%" height="100%" viewBox="0 0 224 113" version="1.1" xmlns="http://www.w3.org/2000/svg" xmlns:xlink="http://www.w3.org/1999/xlink" xml:space="preserve" xmlns:serif="http://www.serif.com/" style="fill-rule:evenodd;clip-rule:evenodd;stroke-linejoin:round;stroke-miterlimit:2;">
    <g>
        <g>
            <g>
                <path d="M83.8,111.3C83.783,111.3 83.767,111.3 83.75,111.3C69.35,111.3 57.5,99.45 57.5,85.05C57.5,70.65 69.35,58.8 83.75,58.8C98.15,58.8 110,70.65 110,85.05C110,85.067 110,85.083 110,85.1C109.929,99.446 98.146,111.229 83.8,111.3Z" style="fill:rgb(144,51,255);fill-rule:nonzero;"/>
                <path d="M83.8,59.8C97.633,59.827 109,71.217 109,85.05C109,98.902 97.602,110.3 83.75,110.3C69.917,110.3 58.527,98.933 58.5,85.1C58.505,71.223 69.923,59.805 83.8,59.8M83.8,57.8C83.783,57.8 83.767,57.8 83.75,57.8C68.801,57.8 56.5,70.101 56.5,85.05C56.5,99.999 68.801,112.3 83.75,112.3C98.68,112.3 110.973,100.03 111,85.1C110.995,70.163 98.736,57.86 83.8,57.8Z" style="fill:rgb(99,17,197);fill-rule:nonzero;"/>
            </g>
            <path d="M83.8,66.2C73.432,66.2 64.9,74.732 64.9,85.1C64.9,95.468 73.432,104 83.8,104C94.168,104 102.7,95.468 102.7,85.1C102.673,74.742 94.158,66.227 83.8,66.2ZM83.8,101.1C75.023,101.1 67.8,93.877 67.8,85.1C67.8,76.323 75.023,69.1 83.8,69.1C92.577,69.1 99.8,76.323 99.8,85.1C99.8,93.877 92.577,101.1 83.8,101.1Z" style="fill:white;fill-rule:nonzero;"/>
        </g>
        <g>
            <g>
                <path d="M27.2,111.3C12.903,111.191 1.2,99.398 1.2,85.101C1.2,70.728 13.027,58.901 27.4,58.901C41.773,58.901 53.6,70.727 53.6,85.1C53.584,99.478 41.748,111.301 27.37,111.301C27.313,111.301 27.257,111.3 27.2,111.3Z" style="fill:rgb(144,51,255);fill-rule:nonzero;"/>
                <path d="M27.3,59.8C41.133,59.827 52.5,71.217 52.5,85.05C52.5,98.902 41.102,110.3 27.25,110.3C13.417,110.3 2.027,98.933 2,85.1C2.005,71.223 13.423,59.805 27.3,59.8M27.3,57.8C12.324,57.8 0,70.124 0,85.1C0,100.076 12.324,112.4 27.3,112.4C42.276,112.4 54.6,100.076 54.6,85.1C54.578,70.132 42.268,57.822 27.3,57.8Z" style="fill:rgb(99,17,197);fill-rule:nonzero;"/>
            </g>
            <path d="M41.6,72.7L39.6,70.7L27.3,83.1L14.9,70.7L12.9,72.7L25.2,85.1L12.9,97.4L14.9,99.5L27.3,87.1L39.6,99.5L41.6,97.4L29.3,85.1L41.6,72.7Z" style="fill:white;fill-rule:nonzero;"/>
        </g>
        <g>
            <g>
                <path d="M140.3,111.3C125.919,111.273 114.1,99.431 114.1,85.05C114.1,70.65 125.95,58.8 140.35,58.8C154.731,58.8 166.573,70.619 166.6,85C166.6,85.017 166.6,85.033 166.6,85.05C166.6,99.45 154.75,111.3 140.35,111.3C140.333,111.3 140.317,111.3 140.3,111.3Z" style="fill:rgb(144,51,255);fill-rule:nonzero;"/>
                <path d="M140.3,59.8C154.133,59.827 165.5,71.217 165.5,85.05C165.5,98.902 154.102,110.3 140.25,110.3C126.417,110.3 115.027,98.933 115,85.1C115.005,71.223 126.423,59.805 140.3,59.8M140.3,57.8C125.37,57.827 113.1,70.12 113.1,85.05C113.1,99.999 125.401,112.3 140.35,112.3C155.299,112.3 167.6,99.999 167.6,85.05C167.6,85.033 167.6,85.017 167.6,85C167.54,70.064 155.237,57.805 140.3,57.8Z" style="fill:rgb(99,17,197);fill-rule:nonzero;"/>
            </g>
            <path d="M154.6,70.7L126,70.7L126,99.3L154.6,99.3L154.6,70.7ZM151.8,96.6L128.8,96.6L128.8,73.6L151.8,73.6L151.8,96.6Z" style="fill:white;fill-rule:nonzero;"/>
        </g>
        <g>
            <g>
                <path d="M196.7,111.3C182.319,111.273 170.5,99.431 170.5,85.05C170.5,70.65 182.35,58.8 196.75,58.8C211.15,58.8 223,70.65 223,85.05C223,85.067 223,85.083 223,85.1C222.929,99.484 211.084,111.284 196.7,111.3Z" style="fill:rgb(144,51,255);fill-rule:nonzero;"/>
                <path d="M196.8,59.8C210.633,59.827 222,71.217 222,85.05C222,98.902 210.602,110.3 196.75,110.3C182.917,110.3 171.527,98.933 171.5,85.1C171.505,71.223 182.923,59.805 196.8,59.8M196.8,57.8C196.783,57.8 196.767,57.8 196.75,57.8C181.801,57.8 169.5,70.101 169.5,85.05C169.5,99.999 181.801,112.3 196.75,112.3C211.68,112.3 223.973,100.03 224,85.1C223.995,70.163 211.736,57.86 196.8,57.8Z" style="fill:rgb(99,17,197);fill-rule:nonzero;"/>
            </g>
            <path d="M212.7,93.1L196.7,65.5L180.7,93.1L179.1,95.9L214.3,95.9L212.7,93.1ZM209.5,93.1L184.1,93.1L196.8,71.2L209.5,93.1Z" style="fill:white;fill-rule:nonzero;"/>
        </g>
    </g>
    <g>
        <g>
            <g>
                <path d="M83.8,53.5C83.783,53.5 83.767,53.5 83.75,53.5C69.35,53.5 57.5,41.65 57.5,27.25C57.5,12.85 69.35,1 83.75,1C98.131,1 109.973,12.819 110,27.2C109.984,41.584 98.184,53.429 83.8,53.5Z" style="fill:rgb(30,178,0);fill-rule:nonzero;"/>
                <path d="M83.8,2C97.633,2.027 109,13.417 109,27.25C109,41.102 97.602,52.5 83.75,52.5C69.917,52.5 58.527,41.133 58.5,27.3C58.5,27.28 58.5,27.26 58.5,27.24C58.5,13.394 69.894,2 83.74,2C83.76,2 83.78,2 83.8,2M83.8,0C83.767,-0 83.733,-0 83.7,-0C68.724,-0 56.4,12.323 56.4,27.3C56.4,42.276 68.724,54.6 83.7,54.6C98.676,54.6 111,42.276 111,27.3C110.978,12.37 98.73,0.076 83.8,-0Z" style="fill:rgb(19,111,0);fill-rule:nonzero;"/>
            </g>
            <path d="M83.8,8.4C73.432,8.4 64.9,16.932 64.9,27.3C64.9,37.668 73.432,46.2 83.8,46.2C94.168,46.2 102.7,37.668 102.7,27.3C102.673,16.942 94.158,8.427 83.8,8.4ZM83.8,43.3C75.023,43.3 67.8,36.077 67.8,27.3C67.8,18.523 75.023,11.3 83.8,11.3C92.577,11.3 99.8,18.523 99.8,27.3C99.8,36.077 92.577,43.3 83.8,43.3Z" style="fill-rule:nonzero;"/>
        </g>
        <g transform="matrix(1,0,0,1,-3.55271e-15,1.65198e-05)">
            <g>
                <path d="M27.2,53.5C12.819,53.473 1,41.631 1,27.25C1,12.85 12.85,1 27.25,1C41.65,1 53.5,12.85 53.5,27.25C53.5,27.267 53.5,27.283 53.5,27.3C53.451,41.692 41.592,53.506 27.2,53.5Z" style="fill:rgb(30,178,0);fill-rule:nonzero;"/>
                <path d="M27.3,2C41.133,2.027 52.5,13.417 52.5,27.25C52.5,41.102 41.102,52.5 27.25,52.5C13.417,52.5 2.027,41.133 2,27.3C2.016,13.427 13.427,2.016 27.3,2M27.3,0C12.324,-0 0,12.324 0,27.3C0,42.276 12.324,54.6 27.3,54.6C42.276,54.6 54.6,42.276 54.6,27.3C54.6,27.29 54.6,27.28 54.6,27.27C54.6,12.31 42.29,-0 27.33,-0C27.32,-0 27.31,-0 27.3,0Z" style="fill:rgb(19,111,0);fill-rule:nonzero;"/>
            </g>
            <path d="M41.6,14.9L39.6,12.9L27.3,25.2L14.9,12.9L12.9,14.9L25.2,27.2L12.9,39.6L14.9,41.6L27.3,29.3L39.6,41.6L41.6,39.6L29.3,27.2L41.6,14.9Z" style="fill-rule:nonzero;"/>
        </g>
        <g>
            <g>
                <path d="M140.3,54.2C125.919,54.173 114.1,42.331 114.1,27.95C114.1,13.55 125.95,1.7 140.35,1.7C154.75,1.7 166.6,13.55 166.6,27.95C166.6,27.967 166.6,27.983 166.6,28C166.584,42.378 154.748,54.2 140.37,54.2C140.347,54.2 140.323,54.2 140.3,54.2Z" style="fill:rgb(30,178,0);fill-rule:nonzero;"/>
                <path d="M140.3,2.7C154.133,2.727 165.5,14.117 165.5,27.95C165.5,41.802 154.102,53.2 140.25,53.2C126.398,53.2 115,41.802 115,27.95C115,27.933 115,27.917 115,27.9C115.071,14.065 126.465,2.716 140.3,2.7M140.3,0.7C125.37,0.727 113.1,13.02 113.1,27.95C113.1,42.899 125.401,55.2 140.35,55.2C155.28,55.2 167.573,42.93 167.6,28C167.578,13.032 155.268,0.722 140.3,0.7Z" style="fill:rgb(19,111,0);fill-rule:nonzero;"/>
            </g>
            <path d="M154.6,13.5L126,13.5L126,42.1L154.6,42.1L154.6,13.5ZM151.8,39.4L128.8,39.4L128.8,16.4L151.8,16.4L151.8,39.4Z" style="fill-rule:nonzero;"/>
        </g>
        <g>
            <g>
                <path d="M196.7,54.8C182.272,54.8 170.4,42.928 170.4,28.5C170.4,14.072 182.272,2.2 196.7,2.2C211.128,2.2 223,14.072 223,28.5C223,28.533 223,28.567 223,28.6C222.929,42.984 211.084,54.784 196.7,54.8Z" style="fill:rgb(30,178,0);fill-rule:nonzero;"/>
                <path d="M196.8,3.3C210.679,3.3 222.1,14.721 222.1,28.6C222.1,42.479 210.679,53.9 196.8,53.9C182.921,53.9 171.5,42.479 171.5,28.6C171.516,14.727 182.927,3.316 196.8,3.3M196.8,1.3C196.767,1.3 196.733,1.3 196.7,1.3C181.724,1.3 169.4,13.623 169.4,28.6C169.4,43.576 181.724,55.9 196.7,55.9C211.676,55.9 224,43.576 224,28.6C223.978,13.67 211.73,1.376 196.8,1.3Z" style="fill:rgb(19,111,0);fill-rule:nonzero;"/>
            </g>
            <path d="M212.7,36.6L196.7,9L180.7,36.6L179.1,39.4L214.3,39.4L212.7,36.6ZM209.5,36.6L184.1,36.6L196.8,14.7L209.5,36.6Z" style="fill-rule:nonzero;"/>
        </g>
    </g>
</svg>
