<svg id="Layer_1" data-name="Layer 1" xmlns="http://www.w3.org/2000/svg" width="98.9" height="22.4" viewBox="0 0 98.9 22.4">
    <g>
        <path d="M0,15.5C-0.011,14.714 0.413,13.982 1.1,13.6C5.6,10.7 24.4,0 52.6,0C79.5,0 93.7,5.9 97.7,8C98.448,8.382 98.915,9.16 98.9,10C98.885,10.84 89.1,7.1 51.4,7.1C13.7,7.1 0,15.5 0,15.5Z" style="fill:rgb(0,113,6);fill-rule:nonzero;"/>
        <path d="M0,22.4L0,15.5C0,15.5 13.7,7.1 51.4,7.1C89.1,7.1 98.9,10 98.9,10L98.9,21C91.2,19.7 77.7,18.4 54.8,18.4C26.3,18.4 8.9,20.7 0,22.4Z" style="fill:rgb(2,149,10);fill-rule:nonzero;"/>
    </g>
</svg>
