<svg id="Layer_1" data-name="Layer 1" xmlns="http://www.w3.org/2000/svg" xmlns:xlink="http://www.w3.org/1999/xlink" width="263.8" height="151.2" viewBox="0 0 263.8 151.2">
    <g>
        <g transform="matrix(1,0,0,1,-0.1,0)">
            <path d="M263.8,5.6C263.322,2.395 260.54,-0.001 257.3,-0L6.7,0C3.446,-0.04 0.642,2.376 0.2,5.6C0.117,6.297 0.083,6.999 0.1,7.7L0.1,135.1C0.1,135.103 0.1,135.107 0.1,135.11C0.1,143.937 7.363,151.2 16.19,151.2C16.193,151.2 16.197,151.2 16.2,151.2L247.8,151.2C247.803,151.2 247.807,151.2 247.81,151.2C256.637,151.2 263.9,143.937 263.9,135.11C263.9,135.107 263.9,135.103 263.9,135.1L263.9,7.7C263.922,6.998 263.888,6.296 263.8,5.6Z" style="fill:rgb(0,113,6);fill-rule:nonzero;"/>
        </g>
        <g>
            <g transform="matrix(1,0,0,1,-0.1,0)">
                <path d="M259.4,1.9C259.4,0.858 258.542,0 257.5,0L6.4,0C5.358,0 4.5,0.858 4.5,1.9L4.5,131.1C4.511,139.654 11.546,146.689 20.1,146.7L243.9,146.7C252.454,146.689 259.489,139.654 259.5,131.1L259.5,7.9L259.4,1.9Z" style="fill:rgb(2,149,10);fill-rule:nonzero;"/>
            </g>
            <g opacity="0.12">
                <g transform="matrix(1,0,0,1,-0.1,0)">
                    <path d="M4.5,131.1C4.511,139.654 11.546,146.689 20.1,146.7L243.9,146.7C252.454,146.689 259.489,139.654 259.5,131.1L259.5,24.5L4.6,24.5L4.6,131.1L4.5,131.1Z" style="fill:rgb(2,149,10);fill-rule:nonzero;"/>
                </g>
            </g>
        </g>
    </g>
</svg>
