<svg id="Layer_1" data-name="Layer 1" xmlns="http://www.w3.org/2000/svg" width="200" height="90.8" viewBox="0 0 200 90.8">    <g>
        <g>
            <g transform="matrix(1,0,0,1,0.1,0)">
                <path d="M199.9,90.8C199.9,90.8 167.2,87.6 149.3,87.6C131.4,87.6 100.9,90 100.9,90C100.9,90 104,45.3 105.7,38C107.4,30.7 113.4,16.7 122.6,10.1C131.8,3.5 134.6,0 145.4,0C156.2,0 170.8,6.4 180,21.4C189.2,36.4 199.9,90.8 199.9,90.8Z" style="fill:rgb(2,149,10);fill-rule:nonzero;"/>
            </g>
            <g transform="matrix(1,0,0,1,0.1,0)">
                <path d="M101.4,83.2C101.4,83.2 127.5,78.8 150.4,78.8C173.3,78.8 198.3,83.2 198.3,83.2C199.3,87.9 199.9,90.8 199.9,90.8C199.9,90.8 167.2,87.6 149.3,87.6C131.4,87.6 100.9,90 100.9,90C100.9,90 101.1,87.3 101.4,83.2Z" style="fill:rgb(0,113,6);fill-rule:nonzero;"/>
            </g>
        </g>
        <g>
            <g transform="matrix(1,0,0,1,0.1,0)">
                <path d="M151.4,65.7L148.2,68.3C146.988,69.492 146.272,71.101 146.2,72.8L156,72.8L156,70.2L149.8,70.2C150.357,69.425 151.073,68.777 151.9,68.3C152.892,67.727 153.801,67.021 154.6,66.2C155.441,65.308 155.907,64.126 155.9,62.9C155.947,61.647 155.433,60.437 154.5,59.6C153.524,58.779 152.275,58.351 151,58.4C147.9,58.4 146.3,60.1 146.3,63.4L149,63.4C149,61.6 149.7,60.7 151.1,60.7C151.164,60.693 151.228,60.69 151.292,60.69C152.295,60.69 153.122,61.516 153.122,62.52C153.122,62.614 153.114,62.707 153.1,62.8C153.2,63.9 152.6,64.8 151.4,65.7Z" style="fill:white;fill-rule:nonzero;"/>
            </g>
            <g transform="matrix(1,0,0,1,0.1,0)">
                <path d="M133.9,67.2L136.9,67.2C138.4,67.2 139.2,67.8 139.3,69.1C139.4,70.4 139.5,71.6 139.6,72.9L142.9,72.9L142.9,72.5C142.4,72.3 142.2,71.8 142.2,71C142.195,70.73 142.228,70.46 142.3,70.2L142.3,69.5C142.458,68.08 141.747,66.697 140.5,66C141.931,65.52 142.848,64.102 142.7,62.6C142.782,61.449 142.296,60.327 141.4,59.6C140.492,58.887 139.353,58.531 138.2,58.6L130.9,58.6L130.9,72.9L133.9,72.9L133.9,67.2ZM133.9,61L137.6,61C139,61 139.7,61.6 139.7,62.9C139.7,64.2 138.9,64.8 137.4,64.8L133.9,64.8L133.9,61Z" style="fill:white;fill-rule:nonzero;"/>
            </g>
        </g>
    </g>
    <g>
        <g>
            <g transform="matrix(1,0,0,1,0.1,0)">
                <path d="M0,90.8C0,90.8 32.7,87.6 50.6,87.6C68.5,87.6 98.9,90 98.9,90C98.9,90 95.8,45.3 94.1,38C92.4,30.7 86.4,16.7 77.2,10.1C68,3.5 65.3,0 54.5,0C43.7,0 29.1,6.4 19.9,21.4C10.7,36.4 0,90.8 0,90.8Z" style="fill:rgb(2,149,10);fill-rule:nonzero;"/>
            </g>
            <g transform="matrix(1,0,0,1,0.1,0)">
                <path d="M98.4,83.2C98.4,83.2 72.3,78.8 49.4,78.8C26.5,78.8 1.5,83.2 1.5,83.2C0.5,87.9 -0.1,90.8 -0.1,90.8C-0.1,90.8 32.6,87.6 50.5,87.6C68.4,87.6 98.9,90 98.9,90C98.9,90 98.8,87.3 98.4,83.2Z" style="fill:rgb(0,113,6);fill-rule:nonzero;"/>
            </g>
        </g>
        <g>
            <g transform="matrix(1,0,0,1,0.1,0)">
                <path d="M64.5,65.7L61.3,68.3C60.088,69.492 59.372,71.101 59.3,72.8L69,72.8L69,70.2L62.8,70.2C63.357,69.425 64.073,68.777 64.9,68.3C65.892,67.727 66.801,67.021 67.6,66.2C68.441,65.308 68.907,64.126 68.9,62.9C68.947,61.647 68.433,60.437 67.5,59.6C66.524,58.779 65.275,58.351 64,58.4C60.9,58.4 59.3,60.1 59.3,63.4L62,63.4C62,61.6 62.7,60.7 64.1,60.7C64.164,60.693 64.228,60.69 64.292,60.69C65.295,60.69 66.122,61.516 66.122,62.52C66.122,62.614 66.114,62.707 66.1,62.8C66.154,63.989 65.535,65.112 64.5,65.7Z" style="fill:white;fill-rule:nonzero;"/>
            </g>
            <path d="M56.1,70.2L49,70.2L49,58.5L46,58.5L46,72.8L56.1,72.8L56.1,70.2Z" style="fill:white;fill-rule:nonzero;"/>
        </g>
    </g>
</svg>
